# xmcd
#
# Track frame offsets:
# 150
# 18787
# 40132
# 64832
# 83132
# 97100
# 128920
# 140637
#
# Disc length: 2228 seconds
#
# Revision: 1
# Processed by: cddbd v1.5PL3 Copyright (c) Steve Scherf et al.
# Submitted via: Easy CD Ripper v2.27
#
DISCID=6808b208
DTITLE=Lluís Llach - Camp del Barça - 6 de juliol de 1985 - Disc 1
DYEAR=1985
DGENRE=Native American
TTITLE0=Vemin del nord, Venim del sud
TTITLE1=Que tinguem sort
TTITLE2=Un nuvol blanc
TTITLE3=No abarateixis el somni
TTITLE4=El jorn dels miserables
TTITLE5=Maremar
TTITLE6=Vaixell de Grecia
TTITLE7=I amb el somriure, la revolta
EXTD=
EXTT0=
EXTT1=
EXTT2=
EXTT3=
EXTT4=
EXTT5=
EXTT6=
EXTT7=
PLAYORDER=
